<svg width="150" height="60" viewBox="0 0 150 60" fill="none" xmlns="http://www.w3.org/2000/svg">
<path d="M14.0398 52.0385C12.1199 52.0385 10.2685 51.7813 8.48563 51.267C6.70279 50.787 5.24567 50.0841 4.11424 49.1586C2.98283 48.1984 2.41711 47.1014 2.41711 45.867V39.8501H3.85711C4.37138 43.3471 5.45138 45.867 7.09706 47.4099C8.74276 48.9527 11.0399 49.7242 13.9884 49.7242C15.977 49.7242 17.5541 49.2956 18.7198 48.4385C19.8855 47.5813 20.4683 46.3471 20.4683 44.7356C20.4683 43.3642 20.0399 42.1986 19.1827 41.2386C18.3256 40.2787 16.9884 39.2328 15.1713 38.1014L8.84561 34.2958C6.54851 32.9588 4.90281 31.57 3.90854 30.1302C2.94854 28.6901 2.46854 27.0103 2.46854 25.0901C2.46854 22.3817 3.49711 20.2388 5.55422 18.6618C7.64563 17.0846 10.457 16.296 13.9884 16.296C15.9084 16.296 17.7598 16.5531 19.5427 17.0674C21.3254 17.5474 22.7825 18.2674 23.9139 19.2274C25.0455 20.1531 25.6111 21.2332 25.6111 22.4674V28.4845H24.1711C23.5884 24.9873 22.5083 22.4674 20.9312 20.9245C19.3541 19.3817 17.2284 18.6103 14.5541 18.6103C12.7027 18.6103 11.2285 19.0559 10.1313 19.9475C9.06847 20.8388 8.53706 22.0559 8.53706 23.5988C8.53706 24.936 8.94847 26.0501 9.77133 26.9416C10.6285 27.7988 11.9999 28.7759 13.8856 29.873L20.2113 33.6272C22.6111 35.033 24.3254 36.4044 25.354 37.7415C26.4169 39.0443 26.9483 40.6215 26.9483 42.4729C26.9483 45.4557 25.8169 47.8043 23.554 49.5185C21.3254 51.1984 18.1542 52.0385 14.0398 52.0385Z" fill="white"/>
<path d="M71.1522 23.9075C71.1522 22.1588 70.9122 20.8731 70.4321 20.0503C69.9522 19.1932 68.9923 18.7646 67.5523 18.7646H67.038V17.2217H88.5863C91.5006 17.2217 92.9577 18.5932 92.9577 21.336V25.7073H91.4149C91.4149 23.5473 90.8662 21.9873 89.7692 21.0274C88.7062 20.0332 87.112 19.536 84.9863 19.536H77.8378V32.6501H89.1521V34.9644H77.8378V51.1642H71.1522V23.9075ZM98.8751 23.9075C98.8751 22.1588 98.635 20.8731 98.1551 20.0503C97.6751 19.1932 96.7151 18.7646 95.2751 18.7646H94.7608V17.2217H100.932C102.166 17.2217 103.109 17.4275 103.761 17.8389C104.412 18.2503 104.875 18.936 105.149 19.896C105.424 20.8217 105.561 22.1588 105.561 23.9075V48.85H123.303V51.1642H98.8751V23.9075ZM131.44 37.5872L122.338 23.9075C121.309 22.433 120.178 21.1475 118.943 20.0503C117.743 18.9531 116.595 18.3531 115.498 18.2503V17.2217H121.103C122.852 17.2217 124.429 17.7703 125.835 18.8674C127.275 19.9646 128.492 21.3016 129.486 22.8789L136.48 33.4216L146.457 17.2217H149.8L138.126 36.1986V51.1642H131.44V37.5872Z" fill="white"/>
<mask id="mask0_70_22" style="mask-type:luminance" maskUnits="userSpaceOnUse" x="31" y="0" width="32" height="56">
<path d="M62.485 0H31.6282V55.285H62.485V0Z" fill="white"/>
</mask>
<g mask="url(#mask0_70_22)">
<path fill-rule="evenodd" clip-rule="evenodd" d="M51.7702 20.2419C56.0898 23.8876 58.8561 31.7015 55.7579 37.1795C55.0629 38.3858 54.2516 39.2971 53.6351 40.1269C52.3859 41.7974 53.8135 43.3264 55.2271 42.3196C55.6821 41.9877 56.155 41.4556 56.6387 41.1427C57.6807 40.4685 58.5615 41.2849 58.268 42.434C57.662 44.75 55.7383 46.7442 53.4548 47.9121C49.4948 49.934 44.9664 49.2695 43.1853 44.987C45.9139 54.567 58.2296 53.5718 61.6409 44.3038C62.2029 42.5881 62.4874 40.7933 62.4833 38.9876C62.4842 31.6442 57.8048 24.1532 51.7702 20.2419Z" fill="white"/>
<path fill-rule="evenodd" clip-rule="evenodd" d="M49.0228 45.0032C49.4243 45.0021 49.8167 44.8819 50.15 44.6577C50.4835 44.4333 50.7432 44.1151 50.8964 43.7431C51.0497 43.3709 51.0893 42.9618 51.0106 42.567C50.9319 42.1725 50.7383 41.81 50.4543 41.5255C50.1704 41.2408 49.8086 41.047 49.4146 40.9684C49.0208 40.8897 48.6126 40.9298 48.2414 41.0834C47.8701 41.237 47.5527 41.4974 47.329 41.8318C47.1054 42.166 46.9856 42.5593 46.9847 42.9617C46.9842 43.2301 47.0366 43.4957 47.1389 43.7436C47.2411 43.9916 47.3913 44.217 47.5806 44.4066C47.77 44.5963 47.9949 44.7466 48.2423 44.8491C48.4897 44.9514 48.755 45.0038 49.0228 45.0032Z" fill="white"/>
<path fill-rule="evenodd" clip-rule="evenodd" d="M53.7876 45.2026C53.7876 45.0081 53.7301 44.8179 53.6223 44.6561C53.5144 44.4944 53.361 44.3683 53.1816 44.2937C53.0023 44.2194 52.8051 44.1999 52.6146 44.2377C52.4243 44.2757 52.2494 44.3694 52.112 44.507C51.9748 44.6445 51.8813 44.8199 51.8435 45.0106C51.8055 45.2015 51.825 45.3992 51.8993 45.5791C51.9735 45.7588 52.0994 45.9124 52.2608 46.0205C52.4223 46.1285 52.6121 46.1863 52.8062 46.1863C53.0664 46.1863 53.3162 46.0826 53.5002 45.8982C53.6842 45.7136 53.7876 45.4635 53.7876 45.2026Z" fill="white"/>
<path fill-rule="evenodd" clip-rule="evenodd" d="M61.6417 44.3004C58.392 52.7312 46.5778 53.7666 43.13 44.8226C42.3627 42.8285 42.2296 40.7305 42.4286 38.5183C42.533 37.3226 41.9077 36.5813 41.1492 36.4302C42.6839 36.8665 40.9225 39.2775 40.761 40.5437C40.7422 41.7956 41.0448 43.0689 41.4998 44.3128C43.5279 49.8473 48.416 53.7023 53.1818 52.0033C57.0749 51.338 60.3202 48.2627 61.6417 44.3031V44.3004Z" fill="white"/>
<path fill-rule="evenodd" clip-rule="evenodd" d="M52.7258 51.8111C46.3788 52.741 41.4104 47.0063 41.8566 40.8638C41.9137 40.0661 42.0172 39.2686 42.0931 38.3859C42.1591 37.5212 42.0931 36.6959 41.1455 36.4303C40.5208 36.3158 39.8007 36.601 39.3171 37.3701C38.8156 38.1748 38.5595 39.4393 38.4936 40.2469C38.3695 41.6704 36.7312 41.9842 36.5036 40.2746C35.954 36.1924 37.7449 32.1952 40.5967 29.356C35.9567 32.7174 29.6348 40.237 34.2488 48.0883C37.0248 52.4272 41.7237 55.2851 47.0578 55.2851C53.8127 55.2851 59.5501 50.6905 61.6381 44.3003C60.3059 48.1929 56.6769 51.2317 52.7258 51.8111Z" fill="white"/>
<path fill-rule="evenodd" clip-rule="evenodd" d="M39.8803 32.8693C39.8812 33.246 39.9933 33.6139 40.2029 33.9265C40.4124 34.2391 40.7097 34.4823 41.0572 34.6255C41.4047 34.7688 41.7869 34.8056 42.1553 34.7312C42.5235 34.6568 42.8617 34.4746 43.1268 34.2076C43.3917 33.9407 43.5717 33.6009 43.6441 33.2314C43.7165 32.8619 43.6778 32.479 43.533 32.1315C43.3884 31.784 43.1441 31.4874 42.8309 31.279C42.5179 31.0707 42.1504 30.96 41.7746 30.961C41.2709 30.9627 40.7885 31.1645 40.4334 31.5223C40.0781 31.8801 39.8794 32.3647 39.8803 32.8693Z" fill="white"/>
<path fill-rule="evenodd" clip-rule="evenodd" d="M45.2993 33.2109C45.2993 33.3783 45.3656 33.539 45.4837 33.6573C45.6018 33.7757 45.7621 33.8422 45.9292 33.8422C46.0963 33.8422 46.2566 33.7757 46.3747 33.6573C46.4928 33.539 46.5591 33.3783 46.5591 33.2109C46.5591 33.0434 46.4928 32.8829 46.3747 32.7645C46.2566 32.6462 46.0963 32.5795 45.9292 32.5795C45.7621 32.5795 45.6018 32.6462 45.4837 32.7645C45.3656 32.8829 45.2993 33.0434 45.2993 33.2109Z" fill="white"/>
<path fill-rule="evenodd" clip-rule="evenodd" d="M44.7496 30.4004C44.9514 30.3986 45.1484 30.3367 45.3153 30.2229C45.4825 30.1091 45.6121 29.9481 45.6881 29.7606C45.7641 29.573 45.7828 29.367 45.7423 29.1687C45.7018 28.9705 45.6035 28.7886 45.4599 28.6461C45.3164 28.5037 45.134 28.407 44.9358 28.3681C44.7375 28.3294 44.5322 28.3503 44.3458 28.4281C44.1593 28.506 44.0001 28.6375 43.8881 28.806C43.7761 28.9744 43.7163 29.1723 43.7163 29.3747C43.7165 29.5103 43.7433 29.6443 43.7955 29.7693C43.8476 29.8942 43.9239 30.0077 44.0199 30.1029C44.1161 30.1984 44.2299 30.2736 44.355 30.3248C44.4804 30.3757 44.6143 30.4015 44.7496 30.4004Z" fill="white"/>
<path fill-rule="evenodd" clip-rule="evenodd" d="M57.4346 34.5112C58.1484 31.2079 57.3123 26.9996 55.9479 24.6844C59.071 28.1791 61.3018 32.6887 61.755 37.2466C61.8782 38.4708 60.5611 38.6899 60.1828 37.7019C59.8794 36.9238 59.6475 36.6574 58.9219 36.5625C57.5961 36.4007 57.132 35.9366 57.4346 34.5112Z" fill="white"/>
<path fill-rule="evenodd" clip-rule="evenodd" d="M39.4724 45.9395C39.5865 44.3066 41.3293 44.0616 41.803 45.4647C43.6511 50.1264 47.9422 53.164 52.9729 52.3002C54.1938 52.0928 55.3706 51.6788 56.453 51.0761C54.2552 53.4118 50.1177 54.6458 47.0651 54.6458C44.1166 54.6449 41.2418 53.7221 38.8416 52.006C37.4138 50.9902 37.5334 49.7704 38.7184 48.7117C39.8453 47.7057 39.3903 47.2308 39.476 45.9395H39.4724Z" fill="white"/>
<path fill-rule="evenodd" clip-rule="evenodd" d="M49.3164 19.9763C45.6499 23.631 40.7993 27.0585 37.1703 31.1793C35.0109 33.5524 33.2862 36.2764 32.6322 39.2022C31.9888 42.0218 32.3484 45.0219 34.2524 48.0882C30.5298 41.5756 35.6927 34.2938 40.6003 29.3559C43.802 26.1473 47.6772 23.5174 50.5193 19.9862C51.4115 18.8656 52.1014 17.7156 52.2146 16.6998C52.2807 16.0452 52.0628 15.4756 51.6793 15.1054C51.49 15.8646 51.7684 16.2258 51.5846 16.8429C51.234 18.0394 50.182 19.1026 49.311 19.9727L49.3164 19.9763Z" fill="white"/>
<path fill-rule="evenodd" clip-rule="evenodd" d="M52.6222 7.035C52.7816 7.0364 52.9379 6.99022 53.0711 6.90229C53.2042 6.81436 53.3083 6.68869 53.3699 6.54128C53.4316 6.39387 53.448 6.23143 53.4172 6.07462C53.3864 5.91782 53.3097 5.77376 53.1968 5.66082C53.0839 5.54786 52.9402 5.47115 52.7837 5.44043C52.6273 5.40971 52.465 5.42636 52.3181 5.48831C52.1711 5.55023 52.0458 5.65464 51.9581 5.7882C51.8706 5.92176 51.8247 6.07842 51.8263 6.23824C51.8283 6.44905 51.9129 6.65064 52.0618 6.79963C52.2106 6.94862 52.4119 7.03313 52.6222 7.035Z" fill="white"/>
<path fill-rule="evenodd" clip-rule="evenodd" d="M48.6051 2.81956C48.8837 2.8206 49.1561 2.73887 49.3883 2.58469C49.6202 2.43049 49.8013 2.21079 49.9088 1.95336C50.0162 1.69592 50.045 1.41235 49.9915 1.13852C49.938 0.864683 49.8048 0.612904 49.6085 0.415041C49.412 0.217176 49.1617 0.0821197 48.8887 0.0269678C48.6157 -0.0281841 48.3327 -0.000953577 48.0752 0.105211C47.8177 0.211376 47.5974 0.391703 47.4422 0.623372C47.287 0.85504 47.204 1.12763 47.2034 1.40666C47.2027 1.78021 47.3498 2.13878 47.6127 2.40366C47.8755 2.66857 48.2325 2.81813 48.6051 2.81956Z" fill="white"/>
<path fill-rule="evenodd" clip-rule="evenodd" d="M53.3986 9.71235C52.9942 9.71128 52.5986 9.83056 52.2618 10.0551C51.9253 10.2796 51.6625 10.5992 51.5073 10.9735C51.3521 11.3477 51.3112 11.7597 51.3897 12.1573C51.4684 12.5549 51.6631 12.9201 51.949 13.2066C52.235 13.4932 52.5995 13.6883 52.9962 13.7671C53.3929 13.8459 53.804 13.8049 54.1774 13.6493C54.5509 13.4938 54.8698 13.2306 55.0938 12.8931C55.3178 12.5557 55.4369 12.1592 55.4358 11.7539C55.436 11.4858 55.3836 11.2202 55.2813 10.9724C55.179 10.7246 55.0288 10.4994 54.8397 10.3098C54.6505 10.1202 54.4257 9.96978 54.1785 9.86726C53.9313 9.76475 53.6662 9.71211 53.3986 9.71235Z" fill="white"/>
<path fill-rule="evenodd" clip-rule="evenodd" d="M49.4682 15.1055C48.3314 15.9506 47.2596 15.0671 48.1225 13.7382C48.9559 12.447 50.6522 9.0882 50.5193 6.91163C50.3774 4.49719 47.6862 4.39615 47.4114 6.71222C47.223 8.33854 46.7889 9.92668 46.1237 11.4222C41.8407 20.4603 31.6283 28.0272 31.6283 38.9843C31.6178 42.207 32.5284 45.3653 34.2526 48.0858C30.6334 42.0667 33.4094 36.1514 37.587 31.4236C40.0508 28.6326 43.1961 26.1734 46.0095 23.7143C47.9048 22.0528 51.2956 19.3182 52.0254 16.8877C52.2155 16.2618 52.1772 15.5777 51.6847 15.1118C51.1537 14.6021 50.2917 14.4983 49.4682 15.1055Z" fill="white"/>
<path fill-rule="evenodd" clip-rule="evenodd" d="M32.2537 40.0089C32.234 39.7147 32.2153 39.4017 32.2153 39.0976C32.1591 31.6255 37.3014 25.4642 41.5283 19.7822C42.3903 18.6241 43.7161 19.5542 42.9498 20.8838C41.9736 22.583 42.6463 23.1052 43.1576 23.6087C43.726 24.1693 43.7822 24.7864 43.1576 25.3077C38.2499 29.4212 33.7974 33.464 32.2537 40.0053V40.0089Z" fill="white"/>
</g>
</svg>
