<svg width="150" height="60" viewBox="0 0 150 60" fill="none" xmlns="http://www.w3.org/2000/svg">
<path d="M14.0398 52.0385C12.1199 52.0385 10.2685 51.7814 8.48563 51.2671C6.70279 50.787 5.24567 50.0842 4.11424 49.1584C2.98283 48.1985 2.41711 47.1015 2.41711 45.8671V39.85H3.85711C4.37138 43.3471 5.45138 45.8671 7.09706 47.4099C8.74276 48.9528 11.0399 49.7242 13.9884 49.7242C15.977 49.7242 17.5541 49.2956 18.7198 48.4385C19.8855 47.5814 20.4683 46.3471 20.4683 44.7357C20.4683 43.3643 20.0399 42.1986 19.1827 41.2387C18.3256 40.2785 16.9884 39.2329 15.1713 38.1015L8.84561 34.2958C6.54851 32.9586 4.90281 31.5701 3.90854 30.1302C2.94854 28.6902 2.46854 27.0101 2.46854 25.0902C2.46854 22.3817 3.49711 20.2389 5.55422 18.6618C7.64563 17.0846 10.457 16.296 13.9884 16.296C15.9084 16.296 17.7598 16.5532 19.5427 17.0674C21.3254 17.5474 22.7825 18.2674 23.9139 19.2274C25.0455 20.1531 25.6111 21.233 25.6111 22.4674V28.4845H24.1711C23.5884 24.9874 22.5083 22.4674 20.9312 20.9246C19.3541 19.3817 17.2284 18.6103 14.5541 18.6103C12.7027 18.6103 11.2285 19.056 10.1313 19.9473C9.06847 20.8389 8.53706 22.056 8.53706 23.5988C8.53706 24.9359 8.94847 26.0501 9.77133 26.9417C10.6285 27.7988 11.9999 28.7759 13.8856 29.8731L20.2113 33.6272C22.6111 35.033 24.3254 36.4043 25.354 37.7415C26.4169 39.0443 26.9483 40.6214 26.9483 42.4729C26.9483 45.4556 25.8169 47.8043 23.554 49.5186C21.3254 51.1985 18.1542 52.0385 14.0398 52.0385Z" fill="url(#paint0_linear_70_68)"/>
<path d="M71.1522 23.9072C71.1522 22.1587 70.9122 20.873 70.4321 20.0503C69.9522 19.1931 68.9923 18.7646 67.5523 18.7646H67.038V17.2217H88.5863C91.5006 17.2217 92.9577 18.5931 92.9577 21.336V25.7072H91.4149C91.4149 23.5473 90.8662 21.9873 89.7692 21.0273C88.7062 20.0332 87.112 19.536 84.9863 19.536H77.8378V32.6501H89.1521V34.9644H77.8378V51.1642H71.1522V23.9072ZM98.8751 23.9072C98.8751 22.1587 98.635 20.873 98.1551 20.0503C97.6751 19.1931 96.7151 18.7646 95.2751 18.7646H94.7608V17.2217H100.932C102.166 17.2217 103.109 17.4274 103.761 17.8388C104.412 18.2503 104.875 18.936 105.149 19.8959C105.424 20.8217 105.561 22.1587 105.561 23.9072V48.8499H123.303V51.1642H98.8751V23.9072ZM131.44 37.5871L122.338 23.9072C121.309 22.433 120.178 21.1473 118.943 20.0503C117.743 18.9531 116.595 18.3531 115.498 18.2503V17.2217H121.103C122.852 17.2217 124.429 17.7702 125.835 18.8674C127.275 19.9646 128.492 21.3016 129.486 22.8788L136.48 33.4215L146.457 17.2217H149.8L138.126 36.1986V51.1642H131.44V37.5871Z" fill="url(#paint1_linear_70_68)"/>
<mask id="mask0_70_68" style="mask-type:luminance" maskUnits="userSpaceOnUse" x="31" y="0" width="32" height="56">
<path d="M62.485 0H31.6282V55.285H62.485V0Z" fill="white"/>
</mask>
<g mask="url(#mask0_70_68)">
<path fill-rule="evenodd" clip-rule="evenodd" d="M51.7701 20.2419C56.0898 23.8877 58.8559 31.7015 55.7578 37.1795C55.0627 38.3858 54.2516 39.2972 53.6351 40.1269C52.3857 41.7975 53.8135 43.3265 55.2269 42.3197C55.6819 41.9878 56.1548 41.4559 56.6385 41.1429C57.6807 40.4685 58.5615 41.285 58.2678 42.434C57.662 44.7501 55.7381 46.7442 53.4548 47.9122C49.4947 49.934 44.9662 49.2696 43.1853 44.9871C45.9139 54.5671 58.2294 53.5718 61.6407 44.3039C62.2029 42.5883 62.4872 40.7936 62.4831 38.9878C62.484 31.6443 57.8048 24.1533 51.7701 20.2419Z" fill="url(#paint2_linear_70_68)"/>
<path fill-rule="evenodd" clip-rule="evenodd" d="M49.0228 45.0033C49.4244 45.0022 49.8167 44.8819 50.1502 44.6575C50.4837 44.4333 50.7434 44.1152 50.8964 43.7429C51.0497 43.3709 51.0895 42.9618 51.0108 42.5671C50.9321 42.1724 50.7385 41.8099 50.4544 41.5254C50.1704 41.2408 49.8086 41.0471 49.4148 40.9684C49.021 40.8897 48.6126 40.9297 48.2415 41.0835C47.8703 41.2371 47.5529 41.4974 47.3292 41.8317C47.1056 42.1661 46.9856 42.5591 46.9847 42.9616C46.9844 43.2299 47.0368 43.4957 47.1391 43.7437C47.2412 43.9916 47.3913 44.2169 47.5808 44.4067C47.77 44.5963 47.9949 44.7467 48.2424 44.8489C48.4898 44.9514 48.755 45.0038 49.0228 45.0033Z" fill="url(#paint3_linear_70_68)"/>
<path fill-rule="evenodd" clip-rule="evenodd" d="M53.7876 45.2026C53.7876 45.0081 53.73 44.8179 53.6222 44.6561C53.5143 44.4944 53.3611 44.3683 53.1817 44.2938C53.0024 44.2194 52.805 44.1999 52.6147 44.2379C52.4241 44.2758 52.2493 44.3696 52.1121 44.5071C51.9749 44.6447 51.8812 44.8199 51.8434 45.0106C51.8056 45.2015 51.825 45.3992 51.8992 45.5791C51.9736 45.7588 52.0993 45.9124 52.2608 46.0205C52.4222 46.1285 52.612 46.1863 52.8061 46.1863C53.0665 46.1863 53.316 46.0826 53.5003 45.8982C53.6843 45.7136 53.7876 45.4635 53.7876 45.2026Z" fill="url(#paint4_linear_70_68)"/>
<path fill-rule="evenodd" clip-rule="evenodd" d="M61.6416 44.3005C58.3919 52.7313 46.5779 53.7667 43.1299 44.8227C42.3626 42.8286 42.2297 40.7305 42.4287 38.5184C42.5329 37.3227 41.9075 36.5813 41.1491 36.4302C42.6838 36.8666 40.9224 39.2775 40.7608 40.5436C40.7421 41.7957 41.0446 43.069 41.4997 44.3129C43.5278 49.8472 48.4159 53.7024 53.1817 52.0032C57.0748 51.338 60.3203 48.2628 61.6416 44.303V44.3005Z" fill="url(#paint5_linear_70_68)"/>
<path fill-rule="evenodd" clip-rule="evenodd" d="M52.7257 51.8111C46.3789 52.741 41.4105 47.0062 41.8566 40.8638C41.9137 40.0662 42.0172 39.2685 42.093 38.3858C42.1591 37.5211 42.093 36.6958 41.1455 36.4302C40.5208 36.3157 39.8007 36.6009 39.3172 37.37C38.8157 38.1747 38.5596 39.4392 38.4936 40.2468C38.3695 41.6703 36.7312 41.9843 36.5038 40.2746C35.954 36.1923 37.7448 32.1951 40.5966 29.3559C35.9567 32.7173 29.6347 40.2369 34.2489 48.0882C37.0247 52.4271 41.7237 55.285 47.0578 55.285C53.8126 55.285 59.5501 50.6905 61.638 44.3003C60.3059 48.1929 56.6769 51.2316 52.7257 51.8111Z" fill="url(#paint6_linear_70_68)"/>
<path fill-rule="evenodd" clip-rule="evenodd" d="M39.8801 32.8693C39.881 33.246 39.9934 33.6137 40.2028 33.9263C40.4124 34.2389 40.7097 34.4824 41.0573 34.6255C41.4048 34.7689 41.7869 34.8056 42.1552 34.7312C42.5236 34.6567 42.8616 34.4746 43.1266 34.2076C43.3917 33.9407 43.5718 33.6009 43.644 33.2314C43.7164 32.8619 43.6778 32.4791 43.5331 32.1315C43.3883 31.784 43.1439 31.4874 42.831 31.2791C42.518 31.0707 42.1503 30.96 41.7745 30.9611C41.271 30.9627 40.7886 31.1645 40.4333 31.5224C40.0782 31.8802 39.8792 32.3647 39.8801 32.8693Z" fill="url(#paint7_linear_70_68)"/>
<path fill-rule="evenodd" clip-rule="evenodd" d="M45.2992 33.2109C45.2992 33.3783 45.3655 33.539 45.4836 33.6574C45.6017 33.7757 45.762 33.8422 45.9291 33.8422C46.0962 33.8422 46.2565 33.7757 46.3746 33.6574C46.4927 33.539 46.559 33.3783 46.559 33.2109C46.559 33.0436 46.4927 32.8829 46.3746 32.7645C46.2565 32.6462 46.0962 32.5795 45.9291 32.5795C45.762 32.5795 45.6017 32.6462 45.4836 32.7645C45.3655 32.8829 45.2992 33.0436 45.2992 33.2109Z" fill="url(#paint8_linear_70_68)"/>
<path fill-rule="evenodd" clip-rule="evenodd" d="M44.7494 30.4003C44.9515 30.3985 45.1483 30.3366 45.3154 30.2228C45.4823 30.109 45.612 29.948 45.688 29.7605C45.764 29.5729 45.7829 29.3669 45.7422 29.1686C45.7017 28.9704 45.6033 28.7885 45.4598 28.646C45.3163 28.5036 45.1341 28.4069 44.9358 28.368C44.7376 28.3293 44.5323 28.3502 44.3457 28.428C44.1593 28.5059 44 28.6374 43.888 28.8059C43.776 28.9743 43.7162 29.1722 43.7162 29.3746C43.7164 29.5102 43.7434 29.6442 43.7954 29.7692C43.8476 29.8941 43.9238 30.0076 44.02 30.103C44.1159 30.1983 44.2299 30.2735 44.3551 30.3247C44.4802 30.3756 44.6144 30.4014 44.7494 30.4003Z" fill="url(#paint9_linear_70_68)"/>
<path fill-rule="evenodd" clip-rule="evenodd" d="M57.4345 34.5112C58.1483 31.2079 57.3122 26.9996 55.948 24.6844C59.071 28.1791 61.3017 32.6887 61.7551 37.2466C61.8781 38.4708 60.5611 38.6899 60.1828 37.7019C59.8795 36.9238 59.6474 36.6573 58.9221 36.5625C57.596 36.4007 57.132 35.9366 57.4345 34.5112Z" fill="url(#paint10_linear_70_68)"/>
<path fill-rule="evenodd" clip-rule="evenodd" d="M39.4724 45.9395C39.5866 44.3066 41.3293 44.0615 41.8031 45.4646C43.651 50.1263 47.9421 53.164 52.973 52.3002C54.1938 52.0927 55.3704 51.6787 56.4528 51.076C54.2552 53.4118 50.1175 54.6458 47.065 54.6458C44.1165 54.6449 41.2418 53.722 38.8414 52.0059C37.4138 50.9901 37.5334 49.7703 38.7183 48.7117C39.8453 47.7056 39.3903 47.2308 39.4758 45.9395H39.4724Z" fill="url(#paint11_linear_70_68)"/>
<path fill-rule="evenodd" clip-rule="evenodd" d="M49.3163 19.9763C45.6498 23.631 40.7992 27.0587 37.1702 31.1793C35.0108 33.5525 33.2861 36.2764 32.632 39.2022C31.9886 42.0218 32.3482 45.022 34.2523 48.0882C30.5297 41.5756 35.6925 34.2938 40.6002 29.3559C43.8019 26.1474 47.6771 23.5174 50.5191 19.9862C51.4114 18.8656 52.1012 17.7157 52.2145 16.6998C52.2806 16.0452 52.0629 15.4756 51.6792 15.1054C51.4899 15.8646 51.7683 16.2259 51.5846 16.8429C51.2338 18.0394 50.1819 19.1026 49.311 19.9727L49.3163 19.9763Z" fill="url(#paint12_linear_70_68)"/>
<path fill-rule="evenodd" clip-rule="evenodd" d="M52.6222 7.03495C52.7818 7.03636 52.9381 6.99015 53.0712 6.90222C53.2044 6.81431 53.3085 6.68864 53.3701 6.54123C53.4317 6.39383 53.4482 6.23138 53.4174 6.07458C53.3865 5.91777 53.3098 5.77371 53.197 5.66077C53.0841 5.54781 52.9403 5.4711 52.7838 5.44036C52.6273 5.40964 52.4652 5.42632 52.3183 5.48824C52.1712 5.55019 52.0458 5.65459 51.9583 5.78815C51.8708 5.92169 51.8249 6.07838 51.8263 6.23819C51.8285 6.449 51.9131 6.65057 52.0619 6.79958C52.2108 6.94857 52.4119 7.03308 52.6222 7.03495Z" fill="url(#paint13_linear_70_68)"/>
<path fill-rule="evenodd" clip-rule="evenodd" d="M48.6051 2.81954C48.8835 2.8206 49.156 2.73887 49.3881 2.58469C49.6202 2.43049 49.8013 2.21079 49.9087 1.95336C50.0162 1.69592 50.045 1.41235 49.9915 1.13852C49.938 0.864684 49.8046 0.612903 49.6083 0.41504C49.412 0.217175 49.1615 0.0821197 48.8885 0.0269678C48.6157 -0.0281841 48.3325 -0.00095357 48.075 0.105211C47.8175 0.211375 47.5973 0.391703 47.442 0.623371C47.287 0.855039 47.2038 1.12763 47.2032 1.40666C47.2025 1.78021 47.3498 2.13878 47.6126 2.40366C47.8755 2.66857 48.2324 2.81813 48.6051 2.81954Z" fill="url(#paint14_linear_70_68)"/>
<path fill-rule="evenodd" clip-rule="evenodd" d="M53.3986 9.71229C52.9942 9.71122 52.5986 9.8305 52.2618 10.055C51.9251 10.2795 51.6625 10.5992 51.5071 10.9734C51.3519 11.3476 51.311 11.7596 51.3897 12.1572C51.4684 12.5548 51.6629 12.92 51.949 13.2066C52.235 13.4932 52.5993 13.6882 52.996 13.767C53.3927 13.8458 53.804 13.8048 54.1773 13.6492C54.5507 13.4937 54.8696 13.2305 55.0936 12.893C55.3177 12.5556 55.4367 12.1591 55.4356 11.7538C55.436 11.4857 55.3834 11.2201 55.2811 10.9723C55.1788 10.7245 55.0288 10.4993 54.8396 10.3097C54.6503 10.1201 54.4258 9.96974 54.1783 9.86722C53.9311 9.76471 53.6662 9.71205 53.3986 9.71229Z" fill="url(#paint15_linear_70_68)"/>
<path fill-rule="evenodd" clip-rule="evenodd" d="M49.4681 15.1054C48.3313 15.9505 47.2597 15.067 48.1224 13.7381C48.9559 12.4469 50.6522 9.08814 50.5191 6.91157C50.3772 4.49713 47.6861 4.39609 47.4113 6.71216C47.2229 8.33848 46.7888 9.92662 46.1238 11.4221C41.8406 20.4602 31.6281 28.0272 31.6281 38.9842C31.6177 42.2069 32.5283 45.3652 34.2525 48.0856C30.6332 42.0665 33.4092 36.1513 37.5869 31.4233C40.0507 28.6326 43.196 26.1733 46.0094 23.7143C47.9047 22.0527 51.2954 19.3182 52.0254 16.8876C52.2154 16.2617 52.1771 15.5776 51.6846 15.1117C51.1535 14.602 50.2917 14.4982 49.4681 15.1054Z" fill="url(#paint16_linear_70_68)"/>
<path fill-rule="evenodd" clip-rule="evenodd" d="M32.2537 40.009C32.234 39.7147 32.2153 39.4018 32.2153 39.0976C32.1589 31.6255 37.3014 25.4642 41.5283 19.7822C42.3901 18.6241 43.7161 19.5542 42.9496 20.8839C41.9734 22.583 42.6463 23.1052 43.1576 23.6087C43.7259 24.1693 43.7822 24.7864 43.1576 25.3077C38.2499 29.4213 33.7972 33.4641 32.2537 40.0054V40.009Z" fill="url(#paint17_linear_70_68)"/>
</g>
<defs>
<linearGradient id="paint0_linear_70_68" x1="20.1931" y1="4.88568" x2="-27.3446" y2="15.315" gradientUnits="userSpaceOnUse">
<stop stop-color="#585858"/>
<stop offset="1"/>
</linearGradient>
<linearGradient id="paint1_linear_70_68" x1="124.588" y1="4.88563" x2="21.908" y2="69.9482" gradientUnits="userSpaceOnUse">
<stop stop-color="#585858"/>
<stop offset="1"/>
</linearGradient>
<linearGradient id="paint2_linear_70_68" x1="52.8355" y1="20.4127" x2="52.8355" y2="76.0742" gradientUnits="userSpaceOnUse">
<stop stop-color="#6416CA"/>
<stop offset="0.32" stop-color="#A54ACD"/>
<stop offset="0.66" stop-color="#CE6AD3"/>
<stop offset="1" stop-color="#DD93E3"/>
</linearGradient>
<linearGradient id="paint3_linear_70_68" x1="49.0219" y1="20.4126" x2="49.0219" y2="76.0743" gradientUnits="userSpaceOnUse">
<stop stop-color="#6416CA"/>
<stop offset="0.32" stop-color="#A54ACD"/>
<stop offset="0.66" stop-color="#CE6AD3"/>
<stop offset="1" stop-color="#DD93E3"/>
</linearGradient>
<linearGradient id="paint4_linear_70_68" x1="52.8025" y1="20.4153" x2="52.8025" y2="76.0707" gradientUnits="userSpaceOnUse">
<stop stop-color="#6416CA"/>
<stop offset="0.32" stop-color="#A54ACD"/>
<stop offset="0.66" stop-color="#CE6AD3"/>
<stop offset="1" stop-color="#DD93E3"/>
</linearGradient>
<linearGradient id="paint5_linear_70_68" x1="40.6681" y1="44.4175" x2="61.2464" y2="44.4175" gradientUnits="userSpaceOnUse">
<stop stop-color="#DD93E3"/>
<stop offset="0.33" stop-color="#CE6AD3"/>
<stop offset="0.67" stop-color="#A54ACD"/>
<stop offset="1" stop-color="#6416CA"/>
</linearGradient>
<linearGradient id="paint6_linear_70_68" x1="61.9245" y1="42.3205" x2="22.6953" y2="42.3205" gradientUnits="userSpaceOnUse">
<stop stop-color="#6416CA"/>
<stop offset="0.33" stop-color="#A54ACD"/>
<stop offset="0.67" stop-color="#CE6AD3"/>
<stop offset="1" stop-color="#DD93E3"/>
</linearGradient>
<linearGradient id="paint7_linear_70_68" x1="61.9245" y1="32.865" x2="22.6953" y2="32.865" gradientUnits="userSpaceOnUse">
<stop stop-color="#6416CA"/>
<stop offset="0.33" stop-color="#A54ACD"/>
<stop offset="0.67" stop-color="#CE6AD3"/>
<stop offset="1" stop-color="#DD93E3"/>
</linearGradient>
<linearGradient id="paint8_linear_70_68" x1="61.9271" y1="33.2065" x2="22.6918" y2="33.2065" gradientUnits="userSpaceOnUse">
<stop stop-color="#6416CA"/>
<stop offset="0.33" stop-color="#A54ACD"/>
<stop offset="0.67" stop-color="#CE6AD3"/>
<stop offset="1" stop-color="#DD93E3"/>
</linearGradient>
<linearGradient id="paint9_linear_70_68" x1="61.9281" y1="29.3755" x2="22.6906" y2="29.3755" gradientUnits="userSpaceOnUse">
<stop stop-color="#6416CA"/>
<stop offset="0.33" stop-color="#A54ACD"/>
<stop offset="0.67" stop-color="#CE6AD3"/>
<stop offset="1" stop-color="#DD93E3"/>
</linearGradient>
<linearGradient id="paint10_linear_70_68" x1="58.8551" y1="22.4899" x2="58.8551" y2="55.9781" gradientUnits="userSpaceOnUse">
<stop stop-color="#6416CA"/>
<stop offset="0.32" stop-color="#A54ACD"/>
<stop offset="0.66" stop-color="#CE6AD3"/>
<stop offset="1" stop-color="#DD93E3"/>
</linearGradient>
<linearGradient id="paint11_linear_70_68" x1="34.9413" y1="49.5996" x2="59.4046" y2="49.5996" gradientUnits="userSpaceOnUse">
<stop stop-color="#DD93E3"/>
<stop offset="0.33" stop-color="#CE6AD3"/>
<stop offset="0.67" stop-color="#A54ACD"/>
<stop offset="1" stop-color="#6416CA"/>
</linearGradient>
<linearGradient id="paint12_linear_70_68" x1="42.2823" y1="51.6661" x2="42.2823" y2="15.4819" gradientUnits="userSpaceOnUse">
<stop stop-color="#6416CA"/>
<stop offset="0.32" stop-color="#A54ACD"/>
<stop offset="0.66" stop-color="#CE6AD3"/>
<stop offset="1" stop-color="#DD93E3"/>
</linearGradient>
<linearGradient id="paint13_linear_70_68" x1="52.6224" y1="48.658" x2="52.6224" y2="-5.60682" gradientUnits="userSpaceOnUse">
<stop stop-color="#6416CA"/>
<stop offset="0.32" stop-color="#A54ACD"/>
<stop offset="0.66" stop-color="#CE6AD3"/>
<stop offset="1" stop-color="#DD93E3"/>
</linearGradient>
<linearGradient id="paint14_linear_70_68" x1="48.6051" y1="48.6632" x2="48.6051" y2="-5.60861" gradientUnits="userSpaceOnUse">
<stop stop-color="#6416CA"/>
<stop offset="0.32" stop-color="#A54ACD"/>
<stop offset="0.66" stop-color="#CE6AD3"/>
<stop offset="1" stop-color="#DD93E3"/>
</linearGradient>
<linearGradient id="paint15_linear_70_68" x1="53.3941" y1="48.6641" x2="53.3941" y2="-5.6086" gradientUnits="userSpaceOnUse">
<stop stop-color="#6416CA"/>
<stop offset="0.32" stop-color="#A54ACD"/>
<stop offset="0.66" stop-color="#CE6AD3"/>
<stop offset="1" stop-color="#DD93E3"/>
</linearGradient>
<linearGradient id="paint16_linear_70_68" x1="41.8798" y1="48.6641" x2="41.8798" y2="-5.60859" gradientUnits="userSpaceOnUse">
<stop stop-color="#6416CA"/>
<stop offset="0.32" stop-color="#A54ACD"/>
<stop offset="0.66" stop-color="#CE6AD3"/>
<stop offset="1" stop-color="#DD93E3"/>
</linearGradient>
<linearGradient id="paint17_linear_70_68" x1="37.9099" y1="45.6479" x2="37.9099" y2="11.8942" gradientUnits="userSpaceOnUse">
<stop stop-color="#6416CA"/>
<stop offset="0.36" stop-color="#A54ACD"/>
<stop offset="0.66" stop-color="#CE6AD3"/>
<stop offset="1" stop-color="#DD93E3"/>
</linearGradient>
</defs>
</svg>
