<svg width="56" height="56" viewBox="0 0 56 56" fill="none" xmlns="http://www.w3.org/2000/svg">
<path d="M55.5533 27.7766C55.5533 12.436 43.1173 -1.52588e-05 27.7766 -1.52588e-05C12.436 -1.52588e-05 0 12.436 0 27.7766C0 43.1173 12.436 55.5533 27.7766 55.5533C43.1173 55.5533 55.5533 43.1173 55.5533 27.7766Z" fill="#DA48D7"/>
<path d="M34.2598 26.7212C34.6504 27.1117 34.6504 27.7449 34.2598 28.1354L27.8959 34.4994C27.5054 34.8899 26.8722 34.8899 26.4817 34.4994C26.0911 34.1088 26.0911 33.4757 26.4817 33.0851L32.1385 27.4283L26.4817 21.7714C26.0911 21.3809 26.0911 20.7477 26.4817 20.3572C26.8722 19.9667 27.5054 19.9667 27.8959 20.3572L34.2598 26.7212ZM18.5527 26.4283L33.5527 26.4283V28.4283H18.5527V26.4283Z" fill="white"/>
</svg>
