<svg width="56" height="57" viewBox="0 0 56 57" fill="none" xmlns="http://www.w3.org/2000/svg">
<path d="M-0.000564575 28.6516C-0.000564575 43.9923 12.4355 56.4283 27.7761 56.4283C43.1167 56.4283 55.5527 43.9923 55.5527 28.6516C55.5527 13.311 43.1167 0.875 27.7761 0.875C12.4355 0.875 -0.000564575 13.311 -0.000564575 28.6516Z" fill="#DA48D7"/>
<path d="M21.2929 29.7071C20.9024 29.3166 20.9024 28.6834 21.2929 28.2929L27.6569 21.9289C28.0474 21.5384 28.6805 21.5384 29.0711 21.9289C29.4616 22.3195 29.4616 22.9526 29.0711 23.3431L23.4142 29L29.0711 34.6569C29.4616 35.0474 29.4616 35.6805 29.0711 36.0711C28.6805 36.4616 28.0474 36.4616 27.6569 36.0711L21.2929 29.7071ZM37 30H22V28H37V30Z" fill="white"/>
</svg>
