<svg width="20" height="20" viewBox="0 0 20 20" fill="none" xmlns="http://www.w3.org/2000/svg">
<g clip-path="url(#clip0_90_25)">
<mask id="mask0_90_25" style="mask-type:luminance" maskUnits="userSpaceOnUse" x="0" y="0" width="20" height="20">
<path d="M20 0H0V20H20V0Z" fill="white"/>
</mask>
<g mask="url(#mask0_90_25)">
<path d="M19.5664 9.1016C19.7589 8.91536 19.895 8.67868 19.9592 8.41867C20.0233 8.15866 20.013 7.88583 19.9293 7.63144C19.8475 7.37631 19.6954 7.14939 19.4906 6.9767C19.2857 6.80402 19.0364 6.69254 18.7711 6.65506L13.9285 5.95142C13.8269 5.93666 13.7304 5.89742 13.6474 5.83706C13.5644 5.77671 13.4973 5.69707 13.4519 5.605L11.2869 1.21734C11.1692 0.976717 10.9861 0.774111 10.7586 0.632735C10.5311 0.491358 10.2684 0.416931 10.0005 0.41798C9.73276 0.417006 9.47012 0.491469 9.24269 0.632841C9.01526 0.774213 8.83225 0.976778 8.7146 1.21734L6.5492 5.6054C6.45709 5.79243 6.27848 5.92178 6.07223 5.95182L1.22962 6.65547C0.964332 6.69294 0.714971 6.80442 0.510125 6.97711C0.305279 7.14979 0.153238 7.37671 0.0714312 7.63184C-0.0122765 7.88623 -0.0226385 8.15906 0.0415321 8.41907C0.105703 8.67908 0.241811 8.91576 0.434267 9.102L3.93807 12.5173C4.08745 12.6631 4.15593 12.8729 4.12069 13.078L3.2941 17.9006C3.2567 18.1055 3.26537 18.3161 3.31946 18.5173C3.37356 18.7184 3.47174 18.905 3.60687 19.0636C4.03379 19.571 4.77908 19.7255 5.375 19.4124L9.70579 17.1352C9.79706 17.0887 9.89807 17.0644 10.0005 17.0644C10.103 17.0644 10.204 17.0887 10.2953 17.1352L14.6265 19.4124C14.8318 19.5219 15.061 19.5793 15.2937 19.5794C15.717 19.5794 16.1183 19.3911 16.3942 19.0636C16.5294 18.9051 16.6276 18.7185 16.6817 18.5173C16.7358 18.3161 16.7444 18.1055 16.707 17.9006L15.88 13.078C15.8627 12.9767 15.8703 12.8728 15.9021 12.7751C15.9339 12.6774 15.989 12.5889 16.0626 12.5173L19.5664 9.1016Z" fill="#FFE75F"/>
</g>
</g>
<defs>
<clipPath id="clip0_90_25">
<rect width="20" height="20" fill="white"/>
</clipPath>
</defs>
</svg>
