<svg width="70" height="70" viewBox="0 0 70 70" fill="none" xmlns="http://www.w3.org/2000/svg">
<rect width="70" height="70" rx="35" fill="#F6F6F6"/>
<path d="M50.2765 47.4689C48.0158 43.5605 44.5319 40.758 40.4662 39.4295C42.4773 38.2323 44.0398 36.408 44.9137 34.2369C45.7877 32.0657 45.9247 29.6677 45.3039 27.4111C44.683 25.1544 43.3386 23.164 41.477 21.7454C39.6155 20.3269 37.3397 19.5586 34.9993 19.5586C32.6588 19.5586 30.3831 20.3269 28.5215 21.7454C26.6599 23.164 25.3155 25.1544 24.6947 27.4111C24.0738 29.6677 24.2109 32.0657 25.0848 34.2369C25.9588 36.408 27.5212 38.2323 29.5323 39.4295C25.4666 40.7565 21.9828 43.559 19.7221 47.4689C19.6392 47.6041 19.5842 47.7545 19.5604 47.9113C19.5365 48.068 19.5443 48.228 19.5833 48.3817C19.6223 48.5354 19.6917 48.6797 19.7874 48.8062C19.8831 48.9327 20.0031 49.0387 20.1404 49.118C20.2777 49.1973 20.4295 49.2483 20.5869 49.268C20.7442 49.2877 20.9039 49.2757 21.0566 49.2327C21.2092 49.1896 21.3517 49.1165 21.4756 49.0175C21.5995 48.9185 21.7023 48.7957 21.7779 48.6564C24.5745 43.8233 29.5175 40.9376 34.9993 40.9376C40.4811 40.9376 45.424 43.8233 48.2206 48.6564C48.2963 48.7957 48.3991 48.9185 48.523 49.0175C48.6469 49.1165 48.7893 49.1896 48.942 49.2327C49.0946 49.2757 49.2543 49.2877 49.4117 49.268C49.569 49.2483 49.7208 49.1973 49.8581 49.118C49.9954 49.0387 50.1155 48.9327 50.2112 48.8062C50.3068 48.6797 50.3762 48.5354 50.4152 48.3817C50.4542 48.228 50.462 48.068 50.4382 47.9113C50.4144 47.7545 50.3594 47.6041 50.2765 47.4689ZM26.6868 30.2501C26.6868 28.6061 27.1743 26.9989 28.0877 25.632C29.0011 24.265 30.2993 23.1995 31.8182 22.5704C33.3371 21.9412 35.0085 21.7766 36.621 22.0974C38.2334 22.4181 39.7146 23.2098 40.8771 24.3723C42.0396 25.5348 42.8313 27.016 43.1521 28.6284C43.4728 30.2409 43.3082 31.9123 42.679 33.4312C42.0499 34.9501 40.9844 36.2483 39.6175 37.1617C38.2505 38.0751 36.6433 38.5626 34.9993 38.5626C32.7954 38.5603 30.6824 37.6837 29.1241 36.1254C27.5657 34.567 26.6891 32.454 26.6868 30.2501Z" fill="#E5E5E5"/>
</svg>
